<svg width="8" height="13" viewBox="0 0 8 13" fill="none" xmlns="http://www.w3.org/2000/svg">
<path d="M0.552204 6.4946L0.552374 6.49461L0.552365 6.49047C0.55194 6.30456 0.627508 6.12308 0.768173 5.97775L5.76549 0.84398L5.76554 0.843933C5.92594 0.678717 6.15799 0.573461 6.41132 0.553466C6.66465 0.533471 6.91599 0.600596 7.10995 0.738609C7.30372 0.876492 7.42339 1.07291 7.44606 1.28342C7.46871 1.49372 7.39313 1.70454 7.23304 1.86945C7.23302 1.86947 7.23301 1.86948 7.23299 1.8695L2.75541 6.45566L2.72192 6.48996L2.75478 6.52486L7.07254 11.1111L7.07267 11.1113C7.15107 11.1939 7.20918 11.2885 7.24413 11.3895C7.27908 11.4905 7.29031 11.5962 7.27733 11.7006C7.26436 11.805 7.22735 11.9066 7.16805 11.9996C7.10873 12.0925 7.0282 12.1751 6.93069 12.2421L6.93066 12.2421L6.92871 12.2435C6.83123 12.3179 6.71644 12.3745 6.59141 12.4095C6.46638 12.4445 6.33411 12.457 6.20295 12.4463C6.0718 12.4355 5.94491 12.4017 5.83025 12.3471C5.7156 12.2926 5.6159 12.2186 5.5371 12.1302L5.53711 12.1302L5.53621 12.1293L0.710174 6.99696C0.592996 6.84825 0.537968 6.67149 0.552204 6.4946Z" fill="#111113" stroke="white" stroke-width="0.1"/>
</svg>
