<svg width="6" height="11" viewBox="0 0 6 11" fill="none" xmlns="http://www.w3.org/2000/svg">
<path d="M5.86478 5.42046L5.86461 5.42044L5.86461 5.42458C5.86496 5.57716 5.80296 5.72635 5.68715 5.84601C5.68714 5.84602 5.68713 5.84603 5.68712 5.84604L1.52271 10.1242L1.52266 10.1242C1.39053 10.2603 1.19911 10.3472 0.989827 10.3638C0.78055 10.3803 0.573069 10.3248 0.413128 10.211C0.253369 10.0973 0.155099 9.93569 0.136489 9.76289C0.117901 9.59029 0.179876 9.41702 0.311696 9.28122C0.311709 9.28121 0.311722 9.28119 0.311736 9.28118L4.04304 5.4594L4.07653 5.4251L4.04367 5.3902L0.445532 1.56831L0.445403 1.56818C0.380847 1.50012 0.333069 1.42228 0.304348 1.33929C0.27564 1.25634 0.266422 1.16957 0.277076 1.08383C0.287733 0.998069 0.318121 0.914569 0.366898 0.838134C0.415696 0.761667 0.482005 0.693686 0.562395 0.638401L0.562429 0.638451L0.564379 0.636964C0.644734 0.575694 0.739428 0.528979 0.842656 0.500084C0.945881 0.471189 1.05512 0.460822 1.16344 0.469714C1.27177 0.478607 1.37652 0.50654 1.47113 0.551547C1.56573 0.596554 1.6479 0.657539 1.71278 0.730305L1.71277 0.730316L1.71368 0.731281L5.73512 5.00794C5.83139 5.13025 5.87645 5.27538 5.86478 5.42046Z" fill="#426BA9" stroke="white" stroke-width="0.1"/>
</svg>
