<svg width="13" height="8" viewBox="0 0 13 8" fill="none" xmlns="http://www.w3.org/2000/svg">
<path d="M6.4946 7.4478L6.49461 7.44763L6.49047 7.44764C6.30456 7.44806 6.12308 7.37249 5.97775 7.23183L0.84398 2.23451L0.843933 2.23446C0.678717 2.07406 0.573461 1.84201 0.553466 1.58868C0.533471 1.33535 0.600596 1.08401 0.738609 0.890053C0.876492 0.696276 1.07291 0.576613 1.28342 0.553942C1.49372 0.531293 1.70454 0.606869 1.86945 0.76696C1.86947 0.766976 1.86948 0.766991 1.8695 0.767006L6.45566 5.24459L6.48996 5.27808L6.52486 5.24522L11.1111 0.927456L11.1113 0.927326C11.1939 0.848933 11.2885 0.790822 11.3895 0.755866C11.4905 0.720922 11.5962 0.709689 11.7006 0.722666C11.805 0.735645 11.9066 0.772645 11.9996 0.831946C12.0925 0.891267 12.1751 0.971803 12.2421 1.06931L12.2421 1.06934L12.2435 1.07129C12.3179 1.16877 12.3745 1.28356 12.4095 1.40859C12.4445 1.53362 12.457 1.66589 12.4463 1.79705C12.4355 1.9282 12.4017 2.05509 12.3471 2.16975C12.2926 2.2844 12.2186 2.3841 12.1302 2.4629L12.1302 2.46289L12.1293 2.46379L6.99696 7.28983C6.84825 7.407 6.67149 7.46203 6.4946 7.4478Z" fill="#426BA9" stroke="white" stroke-width="0.1"/>
</svg>
