<svg width="21" height="21" viewBox="0 0 21 21" fill="#426BA9" xmlns="http://www.w3.org/2000/svg">
<path d="M1.06843 19.095L1.06964 19.0938L4.32516 15.8382C3.7408 13.836 3.69307 11.715 4.18728 9.688C4.68619 7.64166 5.71953 5.76449 7.18166 4.24837L7.18415 4.24578L7.18419 4.24583C8.73893 2.74535 10.672 1.69527 12.777 1.2077C14.8817 0.720203 17.0792 0.813368 19.1351 1.47724C19.2294 1.5059 19.3152 1.55734 19.3848 1.62703C19.4545 1.69673 19.506 1.78254 19.5346 1.87685C19.5347 1.87715 19.5348 1.87745 19.5349 1.87776L19.4392 1.90667C20.0976 3.94553 20.1901 6.12491 19.7067 8.21221C19.2233 10.2995 18.1822 12.2164 16.6946 13.7582L1.06843 19.095ZM1.06843 19.095L0.997179 19.1662L1.00462 19.1733M1.06843 19.095L1.00462 19.1733M1.00462 19.1733C0.935911 19.2738 0.898951 19.3937 0.900023 19.517C0.90139 19.6744 0.964491 19.8248 1.07574 19.9361C1.18698 20.0473 1.33747 20.1104 1.49479 20.1118C1.6521 20.1132 1.80367 20.0527 1.91683 19.9434L1.91684 19.9434L1.91807 19.9422L10.6515 11.2088L10.6522 11.2081C10.7628 11.0952 10.8244 10.9432 10.8236 10.7851C10.8228 10.6271 10.7597 10.4757 10.6479 10.3639C10.5361 10.2521 10.3848 10.189 10.2267 10.1882C10.0686 10.1874 9.91665 10.249 9.80375 10.3596L9.80304 10.3604L5.32423 14.8392C4.93808 13.148 4.97132 11.387 5.42229 9.71007C5.88854 7.97631 6.78613 6.38882 8.03139 5.09555C9.39835 3.77933 11.0905 2.84999 12.9347 2.40266C14.762 1.95944 16.6734 2.00523 18.4769 2.53495C19.0066 4.33837 19.0524 6.24977 18.6092 8.07703C18.1619 9.9214 17.2326 11.6138 15.9163 12.9809C14.8585 14.0264 13.5875 14.8311 12.1901 15.3402C10.7923 15.8493 9.30096 16.0506 7.81818 15.9302L7.77208 15.9265L7.73938 15.9592L6.83216 16.8664L6.69034 17.0082L6.88894 17.0361C7.4496 17.115 8.01484 17.1567 8.58099 17.161C8.58093 17.161 8.58086 17.161 8.58079 17.161L1.00462 19.1733Z" fill="#FFFFFF" stroke="#426BA9" stroke-width="1"/>
</svg>
